<svg width="187.893311" height="89.399994" viewBox="0 0 187.893 89.4" fill="none" xmlns="http://www.w3.org/2000/svg" xmlns:xlink="http://www.w3.org/1999/xlink">
	<desc>
			Created with Pixso.
	</desc>
	<defs/>
	<path id="Vector" d="M107.05 23.58C107.05 30.13 101.74 35.44 95.19 35.44C88.64 35.44 83.33 30.13 83.33 23.58C83.33 17.03 88.64 11.72 95.19 11.72C101.74 11.72 107.05 17.03 107.05 23.58Z" fill="#80BB00" fill-opacity="1.000000" fill-rule="evenodd"/>
	<path id="Vector" d="M158.41 24.11C158.41 30.66 153.1 35.97 146.55 35.97C140 35.97 134.69 30.66 134.69 24.11C134.69 17.56 140 12.25 146.55 12.25C153.1 12.25 158.41 17.56 158.41 24.11Z" fill="#EC5937" fill-opacity="1.000000" fill-rule="evenodd"/>
	<path id="Vector" d="M101.61 0L93.8 7.51L96.59 10.41L104.4 2.89L101.61 0ZM151.45 0.01L143.64 7.52L146.43 10.42L154.24 2.9L151.45 0.01ZM0 36.76L6.25 36.76L9.12 29.41L23.58 29.41L26.55 36.76L32.94 36.76L19.3 4.44L13.73 4.44L0 36.76ZM21.83 24.67L10.9 24.67L16.43 10.8L21.83 24.67ZM56.19 47.69L61.66 47.69L61.66 33.73L61.76 33.73C62.55 34.88 63.64 35.77 64.99 36.39C66.34 37.02 67.75 37.32 69.2 37.32C70.88 37.32 72.4 37.02 73.75 36.39C75.1 35.77 76.25 34.91 77.21 33.86C78.16 32.8 78.89 31.55 79.38 30.13C79.88 28.75 80.14 27.24 80.14 25.65C80.14 24.07 79.88 22.59 79.35 21.18C78.82 19.76 78.1 18.54 77.14 17.49C76.19 16.43 75.07 15.61 73.72 14.98C72.4 14.36 70.88 14.06 69.2 14.06C67.59 14.06 66.11 14.39 64.76 15.08C63.44 15.77 62.35 16.7 61.56 17.85L61.43 17.85L61.43 14.65L56.19 14.65L56.19 47.69ZM110.45 36.76L115.91 36.76L115.91 27.43L125.63 27.43L125.63 36.72L131.1 36.72L131.1 14.65L125.63 14.65L125.63 23.18L115.91 23.18L115.91 14.69L110.45 14.69L110.45 36.76ZM174.91 24.67L166.54 14.65L166.54 14.69L161.77 14.69L161.77 36.76L167.24 36.76L167.24 22.46L174.22 31.35L175.5 31.35L182.42 22.33L182.42 36.76L187.89 36.76L187.89 14.69L183.11 14.69L174.91 24.67ZM36.26 36.76L41.73 36.76L41.73 18.97L50.99 18.97L50.99 14.69L36.26 14.69L36.26 36.76ZM74.24 22.95C74.54 23.81 74.67 24.7 74.67 25.65C74.67 26.61 74.54 27.5 74.24 28.39C73.95 29.25 73.55 30 72.99 30.66C72.46 31.32 71.77 31.81 70.95 32.21C70.13 32.57 69.17 32.77 68.08 32.77C67.1 32.77 66.17 32.61 65.35 32.21C64.53 31.85 63.83 31.32 63.24 30.69C62.65 30.04 62.22 29.28 61.89 28.42C61.56 27.53 61.4 26.64 61.4 25.65C61.4 24.73 61.56 23.81 61.89 22.95C62.19 22.1 62.65 21.34 63.24 20.68C63.83 20.02 64.53 19.53 65.35 19.13C66.17 18.77 67.1 18.57 68.08 18.57C69.17 18.57 70.13 18.74 70.95 19.13C71.77 19.5 72.43 20.02 72.99 20.68C73.55 21.34 73.95 22.1 74.24 22.95ZM24.73 82.31C26.81 81.26 28.46 79.91 29.74 78.26L25.56 74.77C24.67 76.02 23.51 77.01 22.13 77.7C20.71 78.39 19.2 78.72 17.52 78.72C15.81 78.72 14.29 78.43 12.91 77.8C11.52 77.21 10.37 76.35 9.42 75.3C8.46 74.24 7.7 72.99 7.18 71.54C6.65 70.09 6.39 68.54 6.39 66.86C6.39 65.22 6.65 63.67 7.18 62.25C7.74 60.8 8.46 59.55 9.45 58.5C10.44 57.44 11.59 56.59 12.97 55.96C14.36 55.37 15.87 55.04 17.59 55.04C19.23 55.04 20.71 55.4 22.07 56.06C23.42 56.72 24.44 57.57 25.13 58.6L29.25 54.81C28.03 53.26 26.31 52.04 24.17 51.18C22.03 50.33 19.79 49.9 17.45 49.9C15.05 49.9 12.78 50.29 10.67 51.12C8.56 51.94 6.75 53.09 5.2 54.58C3.65 56.09 2.47 57.87 1.58 59.95C0.69 62.02 0.26 64.33 0.26 66.86C0.26 69.37 0.69 71.64 1.54 73.75C2.43 75.86 3.62 77.64 5.13 79.15C6.65 80.67 8.46 81.85 10.57 82.68C12.68 83.5 14.95 83.93 17.42 83.93C20.25 83.93 22.69 83.37 24.73 82.31ZM46.87 65.61C47.76 66.3 48.19 67.39 48.19 68.84L48.15 68.84L48.15 69.43C46.38 69.43 44.6 69.5 42.82 69.66C41.04 69.8 39.46 70.12 38.04 70.65C36.63 71.18 35.47 71.9 34.62 72.89C33.76 73.85 33.33 75.16 33.33 76.81C33.33 78.1 33.59 79.18 34.09 80.04C34.58 80.93 35.21 81.62 35.97 82.15C36.72 82.68 37.58 83.07 38.5 83.3C39.42 83.53 40.31 83.66 41.17 83.66C42.75 83.66 44.1 83.4 45.29 82.81C46.47 82.21 47.46 81.36 48.25 80.2L48.35 80.2L48.35 80.21C48.35 80.73 48.35 81.23 48.38 81.72C48.42 82.21 48.45 82.68 48.48 83.14L53.49 83.14C53.42 82.41 53.39 81.65 53.36 80.86C53.33 80.04 53.33 79.25 53.33 78.46L53.33 71.48C53.33 71.01 53.29 70.59 53.29 70.16C53.29 69.73 53.26 69.3 53.23 68.87C53.1 65.97 52.21 63.83 50.59 62.45C48.98 61.1 46.74 60.41 43.84 60.41C42.03 60.41 40.28 60.7 38.67 61.33C37.05 61.96 35.67 62.81 34.55 63.87L37.38 67C38.11 66.27 39 65.71 40.05 65.25C41.07 64.79 42.19 64.56 43.34 64.56C44.83 64.56 45.98 64.92 46.87 65.61ZM57.64 89.4L62.32 89.4L62.32 83.07L80.11 83.07L80.11 89.4L84.82 89.4L84.82 78.69L81.03 78.69L74.47 61L68.28 61L61.2 78.69L57.64 78.69L57.64 89.4ZM66.86 78.69L71.34 66.34L71.64 67.19L75.59 78.69L66.86 78.69ZM44.23 72.92C45.29 72.83 46.34 72.79 47.36 72.79L48.22 72.79L48.22 73.95C48.22 75.59 47.76 76.94 46.77 78.06C45.82 79.18 44.4 79.74 42.59 79.74C42.09 79.74 41.63 79.68 41.14 79.58C40.68 79.48 40.25 79.28 39.85 79.05C39.49 78.82 39.16 78.49 38.93 78.1C38.7 77.7 38.57 77.21 38.57 76.58C38.57 75.76 38.83 75.1 39.36 74.6C39.89 74.08 40.58 73.72 41.4 73.45C42.26 73.19 43.18 73.02 44.23 72.92Z" fill="#4E3000" fill-opacity="1.000000" fill-rule="evenodd"/>
</svg>
